<?xml version="1.0" encoding="UTF-8" standalone="no"?>
<!-- Created with Inkscape (http://www.inkscape.org/) -->

<svg
   xmlns:dc="http://purl.org/dc/elements/1.1/"
   xmlns:cc="http://creativecommons.org/ns#"
   xmlns:rdf="http://www.w3.org/1999/02/22-rdf-syntax-ns#"
   xmlns:svg="http://www.w3.org/2000/svg"
   xmlns="http://www.w3.org/2000/svg"
   xmlns:sodipodi="http://sodipodi.sourceforge.net/DTD/sodipodi-0.dtd"
   xmlns:inkscape="http://www.inkscape.org/namespaces/inkscape"
   width="744.09448819"
   height="1052.3622047"
   id="svg3771"
   version="1.1"
   inkscape:version="0.48.2 r9819"
   sodipodi:docname="New document 2">
  <defs
     id="defs3773" />
  <sodipodi:namedview
     id="base"
     pagecolor="#ffffff"
     bordercolor="#666666"
     borderopacity="1.0"
     inkscape:pageopacity="0.0"
     inkscape:pageshadow="2"
     inkscape:zoom="1"
     inkscape:cx="380.87622"
     inkscape:cy="578.14879"
     inkscape:document-units="px"
     inkscape:current-layer="layer1"
     showgrid="false"
     inkscape:window-width="692"
     inkscape:window-height="822"
     inkscape:window-x="896"
     inkscape:window-y="0"
     inkscape:window-maximized="0" />
  <metadata
     id="metadata3776">
    <rdf:RDF>
      <cc:Work
         rdf:about="">
        <dc:format>image/svg+xml</dc:format>
        <dc:type
           rdf:resource="http://purl.org/dc/dcmitype/StillImage" />
        <dc:title></dc:title>
      </cc:Work>
    </rdf:RDF>
  </metadata>
  <g
     inkscape:label="Layer 1"
     inkscape:groupmode="layer"
     id="layer1">
    <path
       style="fill:#ffcb05;fill-opacity:1;stroke:none"
       d="m 364.25727,274.57468 -0.5853,187.09941 c -39.98882,2.23939 -39.26144,1.51201 -39.26144,1.51201 l -16.00231,24.73085 -89.29465,-1.50459 C 218.39741,416.82166 251.68506,326.73769 328.374,278.49574 169.16519,305.22422 172.94417,488.10992 172.94417,488.10992 c -38.34957,-1.1621 -39.80433,-0.43472 -39.80433,-0.43472 0,0 4.64844,70.88859 26.72849,77.86124 -6.86761,-63.95319 -3.03,-36.05372 -4.64844,-53.45697 l 222.64974,0.90604 222.64974,-1.41818 c -1.61844,17.40325 2.21917,-10.49622 -4.64844,53.45697 22.08005,-6.97265 26.72849,-77.86124 26.72849,-77.86124 0,0 -1.45476,-0.72738 -39.80433,0.43472 0,0 3.77898,-182.8857 -155.42983,-209.61418 76.68894,48.24195 109.97659,138.32592 109.26043,207.91662 l -89.29465,1.50459 -16.00231,-24.73085 c 0,0 0.72738,0.72738 -39.26144,-1.51201 l -0.5853,-187.09941 z"
       id="path3792"
       inkscape:connector-curvature="0"
       sodipodi:nodetypes="ccccccccccccccccccccc" />
  </g>
</svg>
