<?xml version="1.0" encoding="UTF-8" standalone="no"?>
<!DOCTYPE svg PUBLIC "-//W3C//DTD SVG 1.1//EN" "http://www.w3.org/Graphics/SVG/1.1/DTD/svg11.dtd">
<svg width="100%" height="100%" viewBox="0 0 3000 3000" version="1.1" xmlns="http://www.w3.org/2000/svg" xmlns:xlink="http://www.w3.org/1999/xlink" xml:space="preserve" xmlns:serif="http://www.serif.com/" style="fill-rule:evenodd;clip-rule:evenodd;stroke-linejoin:round;stroke-miterlimit:2;">
    <g transform="matrix(-4.75786,0,0,4.76007,6081.34,-4627.6)">
        <path d="M1029,995C1021.57,991.304 1014.55,975.814 1005.11,978.587C994.536,981.691 1006.14,991.648 1006.25,996.029C1006.33,999.322 1002.09,1002.87 999.714,1004.71C995.071,1008.3 982.087,1008.53 976,1009.99C971.335,1011.12 968.906,1014.87 964.911,1016.98C954.911,1022.24 939.833,1025.24 934.603,1037.26C933.155,1040.59 934.743,1044.52 933.397,1047.9C931.635,1052.31 927.369,1053.41 928.153,1058.99C928.647,1062.5 931.43,1064.14 932.978,1067.09C936.584,1073.96 936.942,1077.79 944,1070C944.709,1072.97 944.425,1079.27 948.109,1080.25C950.649,1080.93 952.336,1078.55 954.17,1077.3C957.745,1074.86 975.177,1073.66 972.339,1081.86C970.186,1088.07 963.661,1081.66 960.089,1081.62C951.836,1081.5 943.361,1088.19 934.062,1084.4C929.63,1082.59 926.753,1063.9 918.593,1069.58C909.249,1076.08 909.757,1086.39 920.17,1091.81C927.002,1095.36 934.761,1091.08 938.867,1101.09C939.694,1103.1 938.961,1104.83 937.651,1106.41C934.704,1109.96 929.751,1112.32 928.434,1117.04C926.651,1123.44 931.139,1127.46 936.424,1122.96C938.885,1120.86 941.038,1119.31 944,1118C946.489,1129.37 954.571,1126.07 961,1120C965.654,1131.47 972.377,1119.18 978,1115C979.989,1123.36 978.102,1129.91 969.911,1133.99C962.871,1137.49 952.624,1133.94 945.015,1135.15C940.912,1135.8 938.904,1139.68 934.985,1140.68C930.246,1141.89 924.578,1139.08 920.17,1141.21C914.402,1144 908.026,1150.11 901.957,1151.68C898.049,1152.7 886.497,1149.63 884.662,1154.3C882.396,1160.08 891.946,1159.56 895,1160L895,1162C883.905,1166.59 867.812,1154.4 863.614,1142.9C862.454,1139.72 864.239,1136.31 863.068,1133.1C862.038,1130.29 859.111,1128.85 858.317,1125.9C857.036,1121.14 858.987,1115.85 857.566,1111.1C855.84,1105.34 849.902,1103.28 852.6,1096.04C857.341,1083.32 877.469,1076.74 867.976,1059.17C866.138,1055.77 855.981,1043.86 851.603,1047.05C848.355,1049.41 851.035,1058.44 844.1,1056.34C837.26,1054.28 835.64,1043.97 827.044,1045.38C817.001,1047.04 829.591,1055.71 826.392,1060.83C820.972,1069.5 811.748,1064.08 806.786,1069.6C803.332,1073.44 810.174,1076.44 810.535,1080.02C811.134,1085.97 803.747,1090.05 805.228,1097.99C806.451,1104.53 814.129,1106.81 816,1113C807.902,1115.46 810.811,1124.19 817,1127C808.055,1134.35 815.534,1134.34 816.851,1143C817.454,1146.97 815.621,1151.07 816.612,1154.96C817.457,1158.27 820.808,1159.85 821.683,1163.1C822.628,1166.62 821.22,1170.49 823.024,1173.83C826.308,1179.91 833.68,1183.27 837.44,1189.17C839.924,1193.07 837.344,1199.14 840.603,1202.4C846.546,1208.34 855.777,1202.69 861,1213C856.917,1213.44 851.944,1212.11 848.089,1213.6C837.148,1217.83 830.918,1225.82 818.015,1224.26C810.502,1223.35 808.26,1213.38 799.999,1213.02C795.924,1212.84 790.019,1212.08 786.209,1213.74C782.987,1215.15 781.235,1219.58 777.1,1218.34C772.761,1217.04 764.424,1208.27 763.317,1203.96C762.434,1200.53 763.851,1196.57 761.987,1193.38C754.077,1179.8 742.811,1180 729,1180C724.931,1180 713.387,1177.51 711.407,1182.26C708.57,1189.08 725.107,1192.32 720.777,1199.68C718.171,1204.12 704.654,1199.22 705.466,1206.05C706.028,1210.78 711.84,1209.05 714.397,1211.6C716.276,1213.48 715.72,1216.44 717.012,1218.62C719.196,1222.32 725.296,1224.86 726.263,1229.21C727.175,1233.3 718.843,1238.17 723.604,1241.97C726.54,1244.32 731.566,1242.32 734.961,1243.6C741.737,1246.17 753.241,1259 758,1249L760,1249C766.617,1261.28 772.28,1260.29 783,1255C786.346,1264.1 799.504,1258.38 806.957,1260.32C813.841,1262.11 815.63,1266.83 824,1265.89C828.205,1265.42 831.921,1260.41 835.911,1260.92C840.863,1261.55 845.497,1269.57 850,1272L850,1274C838.858,1278.64 857.921,1305.29 858,1283C864.516,1286.6 860.488,1297.51 861.059,1304C861.449,1308.43 864.936,1310.18 866.397,1314.04C867.589,1317.19 866.376,1320.68 867.318,1323.85C868.63,1328.27 873.505,1326.54 874.566,1322.94C875.844,1318.6 874.321,1314.41 876,1310L877,1310L888.411,1324.21L890.603,1336.39L904.629,1339.43L917,1355C913.132,1362.68 906.583,1360.9 901.742,1365.74C899.622,1367.86 896.493,1377.89 895.572,1381.04C888.291,1405.91 906.069,1442.09 875.83,1457.99C868.2,1462 862.878,1456.23 859.637,1450C854.374,1439.89 862.543,1427.89 849.83,1421.02C845.468,1418.67 828.612,1418.24 824.419,1421.03C821.239,1423.14 821.397,1427.71 817.867,1429.68C812.348,1432.77 804.389,1429.65 804.449,1438.98C804.497,1446.42 814.741,1441.69 816.248,1448.05C817.13,1451.77 812.797,1454.02 811.603,1457.09C808.991,1463.81 814.611,1478.94 819,1467L822,1467C822.296,1471.99 819.672,1483.68 823.603,1487.38C827.56,1491.1 830.342,1483.84 834.039,1483.75C839.221,1483.62 844.459,1489 851,1489C857.72,1489 862.601,1483.64 867.971,1483.64C871.518,1483.64 872.611,1488.36 876.065,1488.36C879.231,1488.37 880.791,1484.47 883.999,1484.61C888.136,1484.8 889.547,1490.99 894.001,1490.03C901.021,1488.52 903.466,1482.89 911.982,1483.62C915.775,1483.94 917.449,1488.37 921,1488.37C924.686,1488.37 935.35,1477.68 935.365,1474.06C935.386,1469.03 929.809,1464.64 930.015,1458C930.308,1448.57 940.219,1444.25 945.444,1437.41C947.073,1435.27 947.027,1432.37 948.742,1430.32C950.451,1428.27 953.445,1427.73 955.996,1427.81C960.476,1427.95 962.711,1432.17 967.015,1432.85C974.421,1434.02 986.133,1430.1 992.732,1433.99C995.85,1435.83 994.78,1439.95 996.73,1442.63C1001.04,1448.55 1008.51,1455.79 1014.38,1460.18C1037.25,1477.3 1065.33,1490.41 1080.02,1514.62C1082.29,1518.37 1086.92,1520.52 1089.13,1524.38C1091.82,1529.06 1091.23,1544.72 1089.83,1549.96C1089.25,1552.15 1087.77,1553.36 1085.95,1554.57C1073.73,1562.71 1075.39,1549.92 1064.96,1548.24C1058.76,1547.25 1050.01,1556.57 1047.01,1561.46C1044.86,1564.96 1035.32,1581.13 1043.1,1583.25C1047.62,1584.48 1049.76,1575.88 1054.68,1579.65C1059.29,1583.17 1055.25,1590.57 1061.11,1593.82C1067.67,1597.46 1070.22,1588.61 1075.86,1589.97C1081.14,1591.24 1077.5,1599.62 1084.04,1600.77C1094.51,1602.6 1103.31,1589.4 1111.21,1585.01C1116.37,1582.15 1120.6,1582.24 1124.41,1576.71C1127.02,1572.93 1124.59,1567.97 1127.03,1564.32C1129.76,1560.22 1138.78,1563.86 1140.25,1558.7C1141.22,1555.27 1137.08,1549.95 1137,1546C1136.79,1534.77 1141.41,1514.87 1127.91,1509.6C1124.11,1508.12 1119.04,1509.22 1115,1509L1109.6,1494.9L1108.68,1480.04L1104.02,1471.96L1108.85,1455.99L1103.83,1443.98L1114.11,1428.21L1105.52,1424.09L1098,1411C1106.41,1410.5 1116.64,1409.79 1124.96,1411.15C1128.81,1411.78 1130.38,1415.59 1134.04,1416.55C1150.78,1420.93 1169.83,1414.5 1181.71,1402.92C1185.24,1399.49 1191.41,1394.85 1192.68,1389.96C1196.19,1376.5 1195.03,1354.87 1192.85,1341.01C1192.02,1335.7 1186.22,1332.97 1187.61,1327C1190.08,1316.45 1202.35,1303.44 1209.86,1296C1212.67,1293.21 1218.83,1287.98 1216.76,1283.28C1212.9,1274.5 1203.01,1283.79 1198.9,1285.4C1195.8,1286.61 1192.35,1285.44 1189.21,1286.32C1187.08,1286.91 1185.38,1289.75 1183.07,1289.39C1175.66,1288.24 1176.67,1279.07 1175.85,1274.04C1175.3,1270.66 1172.46,1269 1171.31,1265.96C1170.12,1262.82 1171.43,1259.25 1170.57,1256C1169.58,1252.29 1166.43,1249.71 1165.43,1246C1164.39,1242.11 1165.69,1237.92 1164.68,1234.04C1163.84,1230.82 1160.65,1229.11 1159.77,1225.96C1157.44,1217.6 1156.61,1208.36 1153.4,1200.09C1152.2,1197.02 1149.16,1195.28 1148.32,1191.99C1145.37,1180.41 1148,1164.95 1148,1153C1148,1137.38 1144.98,1121.7 1159.29,1111.26C1166.13,1106.27 1174.66,1109.07 1173.94,1118C1172.75,1132.7 1156.55,1124.08 1152.74,1132.23C1146.97,1144.59 1158.98,1145.81 1162.26,1154.02C1163.89,1158.12 1162.18,1162.73 1163.32,1166.9C1164.15,1169.94 1167.34,1171.2 1168.36,1174.1C1169.36,1176.96 1167.87,1180.03 1168.61,1182.96C1169.39,1186.01 1172.26,1187.43 1173.4,1190.21C1176.74,1198.39 1173.48,1211.21 1174.04,1220C1174.37,1225.13 1178.65,1228.53 1183.85,1226.25C1187.34,1224.73 1186.52,1220.95 1188.02,1218.09C1191.81,1210.88 1195.83,1202.92 1192.4,1194.09C1190.44,1189.04 1184.28,1185.43 1188.03,1179.15C1190.47,1175.05 1206.05,1182.04 1212,1182C1214.73,1181.98 1219.32,1182.32 1220.25,1178.9C1221.89,1172.84 1205.93,1165.18 1204.32,1158.96C1203.08,1154.21 1205.03,1148.93 1203.68,1144.21C1202.76,1140.96 1199.37,1139.52 1198.86,1135.98C1196.47,1119.44 1203.34,1096.67 1185.54,1086.01C1183.04,1084.51 1179.76,1085.13 1177,1084.47C1173.75,1083.69 1170.41,1080.74 1167,1081.16C1148.46,1083.39 1129.18,1098.08 1124.32,1117.04C1120.69,1131.2 1124,1150.36 1124,1165C1124,1174.85 1119.47,1199.66 1129,1205L1129,1207C1121.7,1208.35 1096.55,1204.38 1096.64,1217.05C1096.66,1221.58 1112.15,1225.6 1115.79,1227.32C1124.23,1231.31 1140.48,1248.21 1145.01,1256.38C1146.81,1259.62 1145.45,1263.53 1146.32,1266.99C1147.21,1270.53 1150.57,1272.54 1151.57,1276.04C1152.84,1280.52 1151.11,1285.43 1152.32,1289.9C1153.11,1292.84 1156.15,1294.2 1156.97,1297.1C1158.38,1302.08 1155.59,1307.85 1157.74,1312.79C1159.13,1315.98 1162.26,1317.31 1162.85,1321.02C1164.08,1328.75 1161.34,1337.36 1163.32,1344.96C1164.24,1348.52 1167.78,1350.42 1168.68,1354.01C1170.51,1361.35 1165.75,1366.51 1169,1374C1162.97,1376.74 1164.88,1380.27 1161.4,1384.73C1157.4,1389.85 1149.23,1392.48 1143,1391.94C1138.43,1391.55 1136.93,1387.64 1132.9,1386.43C1105.2,1378.13 1090.83,1356.95 1069.29,1338.21C1064.39,1333.95 1055.89,1332.83 1050.21,1329.9C1047.8,1328.66 1046.65,1326.07 1043.9,1325.32C1039.45,1324.1 1035.34,1325.92 1031.43,1322.72C1015.51,1309.73 1013.88,1290.95 1008.57,1273.1C1006.37,1265.73 999.229,1260.27 1004.01,1251.17C1008.82,1242.02 1020.74,1241.63 1028.62,1236.83C1032.97,1234.18 1035.3,1229.34 1040,1227C1043.36,1236.12 1050.64,1242.27 1060,1243.28C1063.14,1243.62 1067.88,1244.39 1070.15,1241.44C1075.39,1234.63 1056.6,1237.41 1059.62,1229.21C1064.52,1215.87 1079.45,1213.91 1085.98,1201.83C1091.32,1191.94 1083.34,1177.92 1087.6,1168.15C1091.37,1159.52 1109.83,1169.67 1114.34,1156.76C1115.46,1153.56 1112.17,1151.54 1109.37,1152.62C1104.33,1154.56 1098.32,1160.14 1098.02,1150C1097.86,1144.48 1102.22,1131.62 1105.37,1127.17C1107.95,1123.52 1112.73,1121.18 1114.4,1116.91C1122.34,1096.57 1108.73,1079.46 1098,1065C1101.15,1064.38 1104.91,1065.02 1107.83,1063.66C1122.22,1056.94 1101.61,1035.73 1098.66,1025.9C1097.12,1020.78 1105.66,1018.49 1102.23,1013.59C1095.76,1004.34 1085.14,1002.8 1078.16,995.153C1074.06,990.65 1078.56,982.526 1072.85,979.322C1065.77,975.346 1058.59,984.407 1056,990L1054,990C1052.06,985.776 1042.68,972.277 1037.21,973.751C1032.76,974.954 1029,990.719 1029,995Z" style="fill:rgb(0,39,76);fill-rule:nonzero;"/>
    </g>
</svg>
