<?xml version="1.0" encoding="UTF-8" standalone="no"?>
<!DOCTYPE svg PUBLIC "-//W3C//DTD SVG 1.1//EN" "http://www.w3.org/Graphics/SVG/1.1/DTD/svg11.dtd">
<svg width="100%" height="100%" viewBox="0 0 4000 4000" version="1.1" xmlns="http://www.w3.org/2000/svg" xmlns:xlink="http://www.w3.org/1999/xlink" xml:space="preserve" style="fill-rule:evenodd;clip-rule:evenodd;stroke-linejoin:round;stroke-miterlimit:1.41421;">
    <g transform="matrix(1,0,0,-1,0,4000)">
        <path d="M2197,2703C2193,2700 2146,2696 2092,2695C2039,2694 1970,2686 1940,2677C1910,2668 1860,2660 1830,2659C1800,2658 1766,2653 1755,2649C1744,2645 1708,2636 1675,2629C1642,2622 1611,2613 1606,2608C1600,2604 1579,2600 1558,2600C1533,2600 1513,2593 1500,2580C1489,2569 1468,2560 1454,2560C1421,2560 1297,2479 1248,2425C1210,2385 1209,2385 1124,2380L1037,2375L1012,2328C995,2296 976,2277 956,2269C939,2263 905,2250 880,2240C851,2229 792,2220 715,2216C649,2212 566,2203 530,2195C494,2187 447,2178 425,2175C395,2170 375,2157 345,2124C323,2100 299,2067 293,2050C283,2022 284,2019 315,2000C343,1983 389,1905 390,1873C391,1859 440,1829 451,1835C456,1839 473,1830 487,1816C502,1801 524,1790 539,1790C554,1790 599,1774 640,1754C694,1728 736,1715 790,1709C866,1701 949,1689 1052,1671C1083,1666 1128,1650 1152,1636C1177,1622 1205,1610 1216,1610C1226,1610 1253,1603 1275,1596C1297,1588 1348,1578 1388,1575C1427,1571 1460,1563 1460,1559C1460,1554 1469,1550 1481,1550C1492,1550 1514,1541 1528,1529C1548,1514 1563,1510 1587,1515C1623,1521 1682,1500 1713,1468C1723,1458 1740,1450 1751,1450C1762,1450 1773,1444 1776,1436C1779,1428 1801,1419 1826,1415C1850,1412 1870,1405 1870,1399C1870,1394 1890,1390 1915,1390C1946,1390 1962,1385 1966,1375C1971,1363 1991,1360 2061,1360C2127,1360 2151,1356 2157,1346C2162,1337 2183,1330 2210,1329C2287,1326 2680,1353 2680,1362C2680,1391 2954,1489 3036,1490C3057,1490 3076,1500 3100,1525C3118,1544 3153,1566 3176,1574C3200,1582 3237,1602 3258,1619C3279,1637 3347,1669 3415,1693C3533,1736 3535,1737 3557,1781C3569,1805 3579,1832 3579,1841C3581,1888 3675,1947 3730,1935C3752,1930 3762,1934 3773,1950C3787,1970 3786,1974 3769,1991C3759,2001 3748,2022 3744,2037C3732,2088 3688,2164 3636,2225C3577,2293 3541,2339 3488,2413C3457,2457 3445,2466 3398,2478C3369,2486 3280,2495 3200,2499C3039,2506 3020,2512 2944,2582C2902,2621 2896,2623 2826,2627C2763,2630 2751,2628 2735,2610C2714,2586 2672,2584 2644,2605C2634,2613 2612,2620 2597,2620C2582,2620 2552,2629 2532,2639C2511,2650 2476,2662 2455,2666C2433,2670 2391,2681 2361,2691C2308,2710 2210,2717 2197,2703ZM2427,2048L2480,2018L2480,1931C2480,1882 2485,1828 2491,1811C2502,1781 2500,1776 2477,1752C2424,1699 2148,1657 2078,1691C2065,1697 2034,1729 2008,1763C1962,1820 1960,1826 1960,1886C1960,1962 1973,1979 2072,2038L2140,2078L2257,2078C2369,2078 2377,2076 2427,2048ZM1655,2039C1665,2024 1653,1987 1630,1960C1619,1947 1610,1925 1610,1911C1610,1888 1604,1882 1566,1871C1526,1860 1518,1860 1478,1879C1399,1918 1305,1980 1308,1993C1310,2000 1323,2015 1338,2027C1363,2048 1375,2050 1507,2050C1596,2050 1651,2046 1655,2039ZM3020,2005C3056,1988 3103,1968 3125,1961C3196,1939 3220,1928 3214,1919C3211,1914 3202,1910 3193,1910C3185,1910 3167,1901 3153,1891C3140,1880 3109,1868 3084,1864C3060,1861 3036,1852 3032,1845C3028,1838 2992,1831 2939,1828L2852,1822L2846,1863C2842,1885 2832,1916 2822,1932C2807,1958 2807,1962 2822,1988C2846,2027 2889,2050 2925,2043C2942,2040 2984,2023 3020,2005Z" style="fill:black;fill-rule:nonzero;"/>
    </g>
</svg>
