<?xml version="1.0" encoding="UTF-8" standalone="no"?>
<!DOCTYPE svg PUBLIC "-//W3C//DTD SVG 1.1//EN" "http://www.w3.org/Graphics/SVG/1.1/DTD/svg11.dtd">
<svg width="100%" height="100%" viewBox="0 0 2000 2000" version="1.1" xmlns="http://www.w3.org/2000/svg" xmlns:xlink="http://www.w3.org/1999/xlink" xml:space="preserve" xmlns:serif="http://www.serif.com/" style="fill-rule:evenodd;clip-rule:evenodd;stroke-linejoin:round;stroke-miterlimit:2;">
    <g transform="matrix(6.66667,0,0,6.66667,0,0)">
        <rect x="0" y="0" width="300" height="300" style="fill:rgb(199,80,0);"/>
    </g>
    <g transform="matrix(13.3334,0,0,13.3228,333.327,-167.23)">
        <g id="_5b3c9065-649f-4681-a402-558a10a1cd6c" serif:id="5b3c9065-649f-4681-a402-558a10a1cd6c">
            <path d="M79.976,45.43C77.195,34.823 73.99,27.845 66.607,25.84C65.551,25.545 64.46,25.392 63.363,25.386C61.135,25.386 59.343,26.057 57.605,26.707C56.007,27.305 54.222,27.96 51.753,28.182L49.905,28.236C49.905,28.246 44.324,27.428 42.381,26.7C40.653,26.052 38.864,25.382 36.646,25.382C35.587,25.382 34.524,25.531 33.398,25.838C26.009,27.844 22.805,34.821 20.03,45.429C16.812,57.716 17.702,65.952 22.47,68.029C23.235,68.366 24.062,68.541 24.898,68.541C29.138,68.541 33.037,64.084 35.885,60.826L36.66,59.928C38.982,57.212 43.846,55.655 50.002,55.655C56.697,55.655 60.812,56.973 63.342,59.932L64.118,60.832C66.963,64.086 70.859,68.539 75.102,68.539C75.941,68.539 76.756,68.367 77.527,68.029C82.296,65.953 83.187,57.717 79.976,45.43ZM39.87,46.26L36.687,46.26L36.687,49.343C36.687,50.474 35.692,51.427 34.515,51.427C33.335,51.427 32.34,50.474 32.34,49.343L32.34,46.26L29.35,46.26C28.222,46.26 27.267,45.264 27.267,44.086C27.267,42.906 28.221,41.911 29.35,41.911L32.34,41.911L32.34,38.825C32.34,37.696 33.336,36.741 34.515,36.741C35.692,36.741 36.687,37.696 36.687,38.825L36.687,41.911L39.87,41.911C40.997,41.911 41.953,42.906 41.953,44.086C41.954,45.265 40.998,46.26 39.87,46.26ZM62.475,50.043C60.723,50.042 59.281,48.601 59.279,46.849C59.282,45.097 60.723,43.657 62.475,43.655C64.226,43.658 65.665,45.098 65.666,46.849C65.665,48.6 64.226,50.04 62.475,50.043ZM68.434,44.084C66.682,44.082 65.242,42.641 65.241,40.889C65.241,39.129 66.674,37.696 68.434,37.696C70.194,37.696 71.628,39.129 71.629,40.889C71.626,42.641 70.186,44.081 68.434,44.084Z" style="fill:white;fill-rule:nonzero;"/>
        </g>
    </g>
    <g transform="matrix(10.8732,0,0,10.8671,-8885,-12592.3)">
        <text x="845.011px" y="1268.28px" style="font-family:'Kroftsmann';font-size:49.983px;fill:white;">Leahey</text>
        <text x="854.725px" y="1318.69px" style="font-family:'Kroftsmann';font-size:49.983px;fill:white;">Media</text>
    </g>
</svg>
